<svg xmlns="http://www.w3.org/2000/svg" xmlns:xlink="http://www.w3.org/1999/xlink">
    <symbol id="small-flame" fill="none" viewBox="0 0 24 24">
        <path stroke="currentColor" stroke-linecap="round" stroke-linejoin="round" stroke-width="1.5" d="M19.5 13.5C19.5 6.75 12 2.25 12 2.25S4.5 6.75 4.5 13.5a7.5 7.5 0 0 0 15 0Z"/>
        <path stroke="currentColor" stroke-linecap="round" stroke-linejoin="round" stroke-width="1.5" d="M8.25 17.25a3.75 3.75 0 0 0 7.5 0c0-3.75-3.75-6-3.75-6s-3.75 2.25-3.75 6Z"/>
    </symbol>

    <symbol id="arrow-down" viewBox="0 0 24 24">
        <g clip-path="url(#clip-arrow-down)">
            <path stroke="currentColor" fill="none" stroke-linecap="round" stroke-linejoin="round" stroke-width="1.5"
                d="M5.25 10L12 16.75 18.75 10" />
        </g>
        <defs>
            <clipPath id="clip-arrow-down">
                <rect width="24" height="24" fill="currentColor" rx="12" />
            </clipPath>
        </defs>
    </symbol>

    <symbol id="arrow-left" viewBox="0 0 24 24">
        <path stroke="currentColor" fill="none" stroke-linecap="round" stroke-linejoin="round" stroke-width="1.5"
            d="M14.75 5.25L8 12l6.75 6.75" />
    </symbol>

    <symbol id="arrow-right" viewBox="0 0 24 24">
        <g clip-path="url(#clip-arrow-right)">
            <path stroke="currentColor" fill="none" stroke-linecap="round" stroke-linejoin="round" stroke-width="1.5"
                d="M9 5.25L15.75 12 9 18.75" />
        </g>
        <defs>
            <clipPath id="clip-arrow-right">
                <rect width="24" height="24" rx="12" />
            </clipPath>
        </defs>
    </symbol>

    <symbol id="arrow-up" viewBox="0 0 24 24">
        <g clip-path="url(#clip-arrow-up)">
            <path stroke="currentColor" fill="none" stroke-linecap="round" stroke-linejoin="round" stroke-width="1.5"
                d="M5.25 14.75L12 8l6.75 6.75" />
        </g>
        <defs>
            <clipPath id="clip-arrow-up">
                <path fill="currentColor" d="M0 12C0 5.373 5.373 0 12 0s12 5.373 12 12-5.373 12-12 12S0 18.627 0 12z" />
            </clipPath>
        </defs>
    </symbol>
    
    <symbol id="menu" viewBox="0 0 24 24">
        <path stroke="currentColor" fill="none" stroke-linecap="round" stroke-linejoin="round" stroke-width="1.5"
            d="M3.75 12h16.5M3.75 6h16.5M3.75 18h16.5" />
    </symbol>
    
    <symbol id="delete" viewBox="0 0 24 24">
        <path stroke="currentColor" fill="none" stroke-linecap="round" stroke-linejoin="round" stroke-width="1.5"
            d="M18.75 5.25l-13.5 13.5m13.5 0L5.25 5.25" />
    </symbol>

    <symbol id="mail-open" fill="none" viewBox="0 0 24 24">
        <path stroke="currentColor" stroke-linecap="round" stroke-linejoin="round" stroke-width="1.5" d="M3 9v9.75a.75.75 0 0 0 .75.75h16.5a.75.75 0 0 0 .75-.75V9l-9-6-9 6Zm7.364 5.25L3.23 19.288m17.539 0-7.133-5.038"/>
        <path stroke="currentColor" stroke-linecap="round" stroke-linejoin="round" stroke-width="1.5" d="m21 9-7.364 5.25h-3.272L3 9"/>
    </symbol>

    <svg id="mail-close" fill="none" viewBox="0 0 24 24">
        <path stroke="currentColor" stroke-linecap="round" stroke-linejoin="round" stroke-width="1.5" d="m21 5.25-9 8.25-9-8.25"/>
        <path stroke="currentColor" stroke-linecap="round" stroke-linejoin="round" stroke-width="1.5" d="M3 5.25h18V18a.75.75 0 0 1-.75.75H3.75A.75.75 0 0 1 3 18V5.25ZM10.364 12 3.23 18.538m17.539 0L13.636 12"/>
    </svg>

    <symbol id="figma" fill="none" viewBox="0 0 40 40">
        <g clip-path="url(#a)">
            <path fill="#0ACF83" d="M14.291 36c2.92 0 5.29-2.39 5.29-5.333v-5.334h-5.29c-2.92 0-5.289 2.39-5.289 5.334 0 2.944 2.37 5.333 5.29 5.333Z"/>
            <path fill="#A259FF" d="M9.002 20c0-2.944 2.37-5.333 5.29-5.333h5.289v10.666h-5.29c-2.92 0-5.289-2.389-5.289-5.333Z"/>
            <path fill="#F24E1E" d="M9.004 9.333C9.004 6.39 11.374 4 14.294 4h5.288v10.667h-5.289c-2.92 0-5.29-2.39-5.29-5.334Z"/>
            <path fill="#FF7262" d="M19.58 4h5.29c2.92 0 5.29 2.39 5.29 5.333 0 2.944-2.37 5.334-5.29 5.334h-5.29V4Z"/>
            <path fill="#1ABCFE" d="M30.16 20c0 2.944-2.37 5.333-5.29 5.333S19.58 22.944 19.58 20c0-2.944 2.37-5.333 5.29-5.333s5.29 2.389 5.29 5.333Z"/>
        </g>
        <defs>
            <clipPath id="a">
            <path fill="#fff" d="M9 4h21.161v32H9z"/>
            </clipPath>
        </defs>
    </symbol>

    <symbol id="xd" fill="none" viewBox="0 0 48 48">
        <path fill="#470137" d="M3 18.2c0-5.32 0-7.98 1.035-10.013a9.5 9.5 0 0 1 4.152-4.152C10.22 3 12.88 3 18.2 3h11.6c5.32 0 7.98 0 10.013 1.035a9.5 9.5 0 0 1 4.152 4.152C45 10.22 45 12.88 45 18.2v11.6c0 5.32 0 7.98-1.035 10.013a9.5 9.5 0 0 1-4.152 4.152C37.78 45 35.12 45 29.8 45H18.2c-5.32 0-7.98 0-10.013-1.035a9.5 9.5 0 0 1-4.152-4.152C3 37.78 3 35.12 3 29.8V18.2Z"/>
        <path fill="#FF61F6" d="m24.97 15.35-5.24 8.872 5.606 9.42c.117.214 0 .262-.17.262h-4c-.282 0-.479-.01-.592-.203a466.33 466.33 0 0 0-1.127-2.24 80.56 80.56 0 0 0-1.197-2.268c-.423-.77-.84-1.55-1.254-2.341-.376.77-.794 1.541-1.197 2.312-.404.77-.803 1.536-1.198 2.297-.394.761-.798 1.517-1.211 2.269-.075.173-.207.19-.395.19h-3.86c-.151 0-.17-.113-.084-.248l5.438-9.16-5.297-9.19c-.097-.131-.014-.271.14-.26h3.973a.455.455 0 0 1 .423.202c.338.77.714 1.541 1.127 2.312.413.77.83 1.532 1.254 2.283.422.751.84 1.512 1.197 2.283.376-.79.756-1.56 1.141-2.312.385-.752.78-1.508 1.184-2.269.403-.76.793-1.517 1.169-2.268.05-.165.17-.248.338-.231h3.69c.142 0 .2.192.142.289Zm8.086 18.929c-2.485.038-5.088-.985-6.396-3.251-.639-1.088-.958-2.451-.958-4.09a7.698 7.698 0 0 1 .958-3.785c1.646-2.943 4.964-4.046 8.114-3.756v-5.693c0-.135.057-.203.17-.203h3.55c.096-.014.182.074.169.174v17.078c0 .705.07 1.407.112 2.11a.306.306 0 0 1-.169.289 14.295 14.295 0 0 1-5.55 1.127Zm1.718-3.584v-7.889c-2.573-.715-5.072 1.246-5.071 3.96-.061 2.805 2.357 4.744 5.071 3.93Z"/>
    </symbol>

    <symbol id="illustrator" viewBox="0 0 63.999 62">
        <path id="Path_99510" data-name="Path 99510" d="M11.4,0H52.8A11.171,11.171,0,0,1,64,11.291V50.709A11.34,11.34,0,0,1,52.6,62H11.4A11.341,11.341,0,0,1,0,50.709V11.291A11.216,11.216,0,0,1,11.4,0Z" fill="#300"/>
        <path id="Path_99511" data-name="Path 99511" d="M24.4,29.4h-10l-2,6.2c0,.2-.2.4-.6.4H7a.43.43,0,0,1-.4-.4l8.6-24.8c.2-.2.2-.4.2-.8a5.537,5.537,0,0,0,.2-1.8l.2-.2h6.8c.2,0,.4,0,.4.2l9.8,27.4c0,.2,0,.4-.2.4H27a.43.43,0,0,1-.4-.4ZM16,24h6.8c-.2-.6-.4-1.2-.6-2a9.749,9.749,0,0,0-.8-2.2c-.2-.8-.6-1.6-.8-2.4a11.275,11.275,0,0,0-.8-2.4,10.778,10.778,0,0,1-.6-2h0a16.894,16.894,0,0,1-1,3.4c-.4,1.2-.8,2.6-1.2,4A24.181,24.181,0,0,1,16,24Z" transform="translate(6.6 7.723)" fill="#ff9a00"/>
        <path id="Path_99512" data-name="Path 99512" d="M24.2,13.7a3.69,3.69,0,0,1-2.4-1,3.492,3.492,0,0,1-.8-2.4,3.69,3.69,0,0,1,1-2.4,3.38,3.38,0,0,1,4.8,0,2.748,2.748,0,0,1,.8,2.4,2.692,2.692,0,0,1-1,2.4A3.312,3.312,0,0,1,24.2,13.7Zm-2.8,23V16.3a.43.43,0,0,1,.4-.4H27a.43.43,0,0,1,.4.4V36.9a.43.43,0,0,1-.4.4H21.8C21.4,37.3,21.4,37.1,21.4,36.7Z" transform="translate(20.999 6.643)" fill="#ff9a00"/>
    </symbol>

    <symbol id="photoshop" viewBox="0 0 63.999 62">
        <path id="Path_99550" data-name="Path 99550" d="M11.4,0H52.8A11.171,11.171,0,0,1,64,11.291V50.709A11.34,11.34,0,0,1,52.6,62H11.4A11.341,11.341,0,0,1,0,50.709V11.291A11.216,11.216,0,0,1,11.4,0Z" fill="#001e36"/>
        <path id="Path_99551" data-name="Path 99551" d="M7.2,35.8V8.4c0-.2,0-.4.2-.4h8.4a13.981,13.981,0,0,1,5.4.8,10.487,10.487,0,0,1,3.6,2,7.912,7.912,0,0,1,2,3,10.158,10.158,0,0,1,.6,3.4,9.756,9.756,0,0,1-1.6,5.6A9.481,9.481,0,0,1,21.6,26a18.854,18.854,0,0,1-6,1H13v8.6a.7.7,0,0,1-.2.4H7.6C7.4,36.2,7.2,36,7.2,35.8ZM13,13.2v9h2.4a15.438,15.438,0,0,0,3-.4,5.178,5.178,0,0,0,2.2-1.4,3.91,3.91,0,0,0,.8-2.8,5.325,5.325,0,0,0-.6-2.4A6.9,6.9,0,0,0,19,13.6a8.291,8.291,0,0,0-3.2-.6H14A4.069,4.069,0,0,0,13,13.2Z" transform="translate(7.2 7.722)" fill="#31a8ff"/>
        <path id="Path_99552" data-name="Path 99552" d="M32.6,17.2a10.047,10.047,0,0,0-2.6-1,15.438,15.438,0,0,0-3-.4,4.4,4.4,0,0,0-1.6.2c-.4,0-.6.2-.8.6-.2.2-.2.4-.2.8a.735.735,0,0,0,.2.6,4.362,4.362,0,0,0,1,.8,7.1,7.1,0,0,0,1.8.8,14.991,14.991,0,0,1,4,2,11.461,11.461,0,0,1,2.2,2.2,6.388,6.388,0,0,1,.6,2.8,8.149,8.149,0,0,1-1,3.6,8.855,8.855,0,0,1-3,2.4,12.1,12.1,0,0,1-4.8.8,22.038,22.038,0,0,1-3.6-.4,14.732,14.732,0,0,1-2.8-.8c-.2,0-.4-.4-.4-.6V27l.2-.2H19a17.3,17.3,0,0,0,3.4,1.4,15.544,15.544,0,0,0,3.2.4,5.352,5.352,0,0,0,2.2-.4,1.35,1.35,0,0,0,.8-1.2,1.1,1.1,0,0,0-.6-1,7.926,7.926,0,0,0-2.6-1.2,13.831,13.831,0,0,1-3.8-2,6.919,6.919,0,0,1-2-2.2,6.388,6.388,0,0,1-.6-2.8,6.043,6.043,0,0,1,1-3.2,5.516,5.516,0,0,1,2.8-2.4,10.711,10.711,0,0,1,4.8-1,19.4,19.4,0,0,1,3.4.2,10.548,10.548,0,0,1,2.4.6l.2.2V17l-.2.2Z" transform="translate(18.6 10.867)" fill="#31a8ff"/>
    </symbol>

    <symbol id="css" fill="none" viewBox="0 0 40 40">
        <path fill="#2062AF" d="M29.344 33.555 20 36l-9.344-2.445L8.5 10.857h23l-2.156 22.698Z"/>
        <path fill="#3C9CD7" d="M20 12v21.709l.02.005 7.459-2.011L29.2 12H20Z"/>
        <path fill="#080808" d="M14.638 7.096V5.617h2.051V4H13.1v4.571h3.59V7.096h-2.052Zm5.74-1.479h1.435V4h-3.59v1.617c.48.505.73.747 1.425 1.477l-1.425.002V8.57h3.59V7.096l-1.434-1.479Zm5.088 0H26.9V4h-3.59v1.617c.48.505.731.747 1.426 1.477l-1.426.002V8.57h3.59V7.096l-1.434-1.479Z"/>
        <path fill="#fff" d="M19.763 18.228 13.1 20.84l.221 2.588 6.442-2.594 6.853-2.76.284-2.646-7.137 2.799Z"/>
        <path fill="url(#a)" d="m13.1 20.586.229 2.843L20 20.578v-2.865l-6.9 2.872Z"/>
        <path fill="url(#b)" d="M26.9 15.429 20 18.387v2.756l6.625-2.917.275-2.797Z"/>
        <path fill="url(#c)" d="m13.1 21.143.23 2.712 10.284.03-.23 3.616-3.384.904-3.253-.78-.197-2.243h-3.023l.395 4.332 6.111 1.715 6.078-1.684.79-8.602H13.1Z"/>
        <path fill="#080808" d="M20 21.143h-6.9l.229 2.712 6.671.02v-2.732Zm0 7.253-.033.01-3.237-.78-.196-2.244h-3.009l.393 4.332L20 31.43v-3.032Z" opacity=".05"/>
        <path fill="url(#d)" d="M13.1 15.429h13.8l-.272 2.285H13.433L13.1 15.43Z"/>
        <path fill="#080808" d="M20 15.429h-6.9l.33 2.285H20V15.43Z" opacity=".05"/>
        <defs>
            <linearGradient id="a" x1="16.55" x2="16.55" y1="23.429" y2="17.714" gradientUnits="userSpaceOnUse">
            <stop offset=".387" stop-color="#D1D3D4" stop-opacity="0"/>
            <stop offset="1" stop-color="#D1D3D4"/>
            </linearGradient>
            <linearGradient id="b" x1="23.45" x2="23.45" y1="21.143" y2="15.429" gradientUnits="userSpaceOnUse">
            <stop offset=".387" stop-color="#D1D3D4" stop-opacity="0"/>
            <stop offset="1" stop-color="#D1D3D4"/>
            </linearGradient>
            <linearGradient id="c" x1="13.1" x2="26.9" y1="26.286" y2="26.286" gradientUnits="userSpaceOnUse">
            <stop stop-color="#E8E7E5"/>
            <stop offset="1" stop-color="#fff"/>
            </linearGradient>
            <linearGradient id="d" x1="13.1" x2="26.9" y1="16.571" y2="16.571" gradientUnits="userSpaceOnUse">
            <stop stop-color="#E8E7E5"/>
            <stop offset="1" stop-color="#fff"/>
            </linearGradient>
        </defs>
    </symbol>

    <symbol id="html" fill="none" viewBox="0 0 34 35">
        <g clip-path="url(#a)">
            <path fill="#E44D26" d="M10.926 33.428 8.833 10.29h23l-2.095 23.135-9.42 2.573-9.392-2.57Z"/>
            <path fill="#F16529" d="m20.333 34.031 7.61-2.08 1.791-19.77h-9.401v21.85Z"/>
            <path fill="#EBEBEB" d="M20.333 20.763h-3.81l-.263-2.906h4.073V15.02h-7.22l.069.762.707 7.82h6.444v-2.838Zm0 7.37-.013.004-3.207-.854-.204-2.263h-2.89l.403 4.456 5.898 1.614.013-.004v-2.952Z"/>
            <path fill="#080808" d="M10.973 4.001h1.463v1.425h1.338V4.001h1.464v4.315h-1.464V6.871h-1.338v1.445h-1.463V4.001Zm6.189 1.431h-1.288v-1.43h4.04v1.43h-1.289v2.884h-1.463V5.432Zm3.393-1.43h1.526l.939 1.516L23.957 4h1.527v4.315h-1.458V6.178L23.02 7.712h-.026l-1.007-1.534v2.138h-1.432V4.001Zm5.657 0h1.463V6.89h2.058v1.426h-3.521V4.001Z"/>
            <path fill="#fff" d="M20.323 20.763v2.838h3.545l-.334 3.68-3.211.855v2.952l5.903-1.612.043-.48.677-7.47.07-.763h-6.693Zm0-5.744v2.838h6.955l.057-.638.132-1.438.069-.762h-7.213Z"/>
        </g>
        <defs>
            <clipPath id="a">
            <path fill="#fff" d="M8.833 4h23v32h-23z"/>
            </clipPath>
        </defs>
    </symbol>

    <symbol id="javascript" viewBox="0 0 256 256" class="SkillContext_svg__1dGYg">
        <path fill="#F7DF1E" d="M0 0h256v256H0z"></path><path d="m67.312 213.932 19.59-11.856c3.78 6.701 7.218 12.371 15.465 12.371 7.905 0 12.89-3.092 12.89-15.12v-81.798h24.057v82.138c0 24.917-14.606 36.259-35.916 36.259-19.245 0-30.416-9.967-36.087-21.996M152.381 211.354l19.588-11.341c5.157 8.421 11.859 14.607 23.715 14.607 9.969 0 16.325-4.984 16.325-11.858 0-8.248-6.53-11.17-17.528-15.98l-6.013-2.58c-17.357-7.387-28.87-16.667-28.87-36.257 0-18.044 13.747-31.792 35.228-31.792 15.294 0 26.292 5.328 34.196 19.247L210.29 147.43c-4.125-7.389-8.591-10.31-15.465-10.31-7.046 0-11.514 4.468-11.514 10.31 0 7.217 4.468 10.14 14.778 14.608l6.014 2.577c20.45 8.765 31.963 17.7 31.963 37.804 0 21.654-17.012 33.51-39.867 33.51-22.339 0-36.774-10.654-43.819-24.574"></path>
    </symbol>

    
    <symbol id="react" viewBox="-10.5 -9.45 21 18.9" xmlns="http://www.w3.org/2000/svg" class="uwu-hidden mt-4 mb-3 text-brand dark:text-brand-dark w-24 lg:w-28 self-center text-sm me-0 flex origin-center transition-all ease-in-out"><circle cx="0" cy="0" r="2" fill="#60dcfc"></circle><g stroke="#60dcfc" stroke-width="1" fill="none"><ellipse rx="10" ry="4.5"></ellipse><ellipse rx="10" ry="4.5" transform="rotate(60)"></ellipse><ellipse rx="10" ry="4.5" transform="rotate(120)"></ellipse></g>
    </symbol>

    <symbol id="tailwind" viewBox="0 0 54 33">
        <g clip-path="url(#tailwind-clip0)">
            <path fill="#38bdf8" fill-rule="evenodd"
            d="M27 0c-7.2 0-11.7 3.6-13.5 10.8 2.7-3.6 5.85-4.95 9.45-4.05 2.054.513 3.522 2.004 5.147 3.653C30.744 13.09 33.808 16.2 40.5 16.2c7.2 0 11.7-3.6 13.5-10.8-2.7 3.6-5.85 4.95-9.45 4.05-2.054-.513-3.522-2.004-5.147-3.653C36.756 3.11 33.692 0 27 0zM13.5 16.2C6.3 16.2 1.8 19.8 0 27c2.7-3.6 5.85-4.95 9.45-4.05 2.054.514 3.522 2.004 5.147 3.653C17.244 29.29 20.308 32.4 27 32.4c7.2 0 11.7-3.6 13.5-10.8-2.7 3.6-5.85 4.95-9.45 4.05-2.054-.513-3.522-2.004-5.147-3.653C23.256 19.31 20.192 16.2 13.5 16.2z"
            clip-rule="evenodd"/>
        </g>
        <defs>
            <clipPath id="tailwind-clip0">
            <rect width="54" height="32.4" fill="#fff"/>
            </clipPath>
        </defs>
    </symbol>
    
    <symbol id="sass" viewBox="0 0 512 384">
        <path fill="#CF649A" d="M440.6 220.6c-17.9.1-33.4 4.4-46.4 10.8-4.8-9.5-9.6-17.8-10.4-24-.9-7.2-2-11.6-.9-20.2s6.1-20.8 6.1-21.8c-.1-.9-1.1-5.3-11.4-5.4-10.3-.1-19.2 2-20.2 4.7s-3 8.9-4.3 15.3c-1.8 9.4-20.6 42.7-31.3 60.2-3.5-6.8-6.5-12.8-7.1-17.6-.9-7.2-2-11.6-.9-20.2s6.1-20.8 6.1-21.8c-.1-.9-1.1-5.3-11.4-5.4-10.3-.1-19.2 2-20.2 4.7s-2.1 9.1-4.3 15.3c-2.1 6.2-27.1 61.8-33.6 76.3-3.3 7.4-6.2 13.3-8.3 17.3s-.1.3-.3.7c-1.8 3.4-2.8 5.3-2.8 5.3v.1c-1.4 2.5-2.9 4.9-3.6 4.9-.5 0-1.5-6.7.2-15.9 3.7-19.3 12.7-49.4 12.6-50.5 0-.5 1.7-5.8-5.8-8.5-7.3-2.7-9.9 1.8-10.5 1.8-.6 0-1.1 1.6-1.1 1.6s8.1-33.9-15.5-33.9c-14.8 0-35.2 16.1-45.3 30.8-6.4 3.5-20 10.9-34.4 18.8-5.5 3-11.2 6.2-16.6 9.1l-1.1-1.2c-28.6-30.5-81.5-52.1-79.3-93.1.8-14.9 6-54.2 101.6-101.8 78.3-39 141-28.3 151.9-4.5 15.5 34-33.5 97.2-114.9 106.3-31 3.5-47.3-8.5-51.4-13-4.3-4.7-4.9-4.9-6.5-4-2.6 1.4-1 5.6 0 8.1 2.4 6.3 12.4 17.5 29.4 23.1 14.9 4.9 51.3 7.6 95.3-9.4 49.3-19.1 87.8-72.1 76.5-116.4-11.5-45.1-86.3-59.9-157-34.8-42.1 15-87.7 38.4-120.5 69.1-39 36.4-45.2 68.2-42.6 81.4 9.1 47.1 74 77.8 100 100.5-1.3.7-2.5 1.4-3.6 2-13 6.4-62.5 32.3-74.9 59.7-14 31 2.2 53.3 13 56.3 33.4 9.3 67.6-7.4 86.1-34.9 18.4-27.5 16.2-63.2 7.7-79.5l-.3-.6 10.2-6c6.6-3.9 13.1-7.5 18.8-10.6-3.2 8.7-5.5 19-6.7 34-1.4 17.6 5.8 40.4 15.3 49.4 4.2 3.9 9.2 4 12.3 4 11 0 16-9.1 21.5-20 6.8-13.3 12.8-28.7 12.8-28.7s-7.5 41.7 13 41.7c7.5 0 15-9.7 18.4-14.7v.1s.2-.3.6-1c.8-1.2 1.2-1.9 1.2-1.9v-.2c3-5.2 9.7-17.1 19.7-36.8 12.9-25.4 25.3-57.2 25.3-57.2s1.2 7.8 4.9 20.6c2.2 7.6 7 15.9 10.7 24-3 4.2-4.8 6.6-4.8 6.6l.1.1c-2.4 3.2-5.1 6.6-7.9 10-10.2 12.2-22.4 26.1-24 30.1-1.9 4.7-1.5 8.2 2.2 11 2.7 2 7.5 2.4 12.6 2 9.2-.6 15.6-2.9 18.8-4.3 5-1.8 10.7-4.5 16.2-8.5 10-7.4 16.1-17.9 15.5-31.9-.3-7.7-2.8-15.3-5.9-22.5.9-1.3 1.8-2.6 2.7-4 15.8-23.1 28-48.5 28-48.5s1.2 7.8 4.9 20.6c1.9 6.5 5.7 13.6 9.1 20.6-14.8 12.1-24.1 26.1-27.3 35.3-5.9 17-1.3 24.7 7.4 26.5 3.9.8 9.5-1 13.7-2.8 5.2-1.7 11.5-4.6 17.3-8.9 10-7.4 19.6-17.7 19.1-31.6-.3-6.4-2-12.7-4.3-18.7 12.6-5.2 28.9-8.2 49.6-5.7 44.5 5.2 53.3 33 51.6 44.6-1.7 11.6-11 18-14.1 20-3.1 1.9-4.1 2.6-3.8 4 .4 2.1 1.8 2 4.5 1.6 3.7-.6 23.4-9.5 24.2-30.9 1.2-27.5-24.9-57.5-71.2-57.2zm-343.2 115.7c-14.7 16.1-35.4 22.2-44.2 17-9.5-5.5-5.8-29.2 12.3-46.3 11-10.4 25.3-20 34.7-25.9 2.1-1.3 5.3-3.2 9.1-5.5.6-.4 1-.6 1-.6.7-.4 1.5-.9 2.3-1.4 6.7 24.4.3 45.8-15.2 62.7zm107.5-73.1c-5.1 12.5-15.9 44.6-22.4 42.8-5.6-1.5-9-25.8-1.1-49.8 4-12.1 12.5-26.5 17.5-32.1 8.1-9 16.9-12 19.1-8.3 2.6 4.8-9.9 39.6-13.1 47.4zm88.7 42.4c-2.2 1.1-4.2 1.9-5.1 1.3-.7-.4.9-1.9.9-1.9s11.1-11.9 15.5-17.4c2.5-3.2 5.5-6.9 8.7-11.1v1.2c0 14.4-13.8 24-20 27.9zm68.4-15.6c-1.6-1.2-1.4-4.9 4-16.5 2.1-4.6 6.9-12.3 15.2-19.6 1 3 1.6 5.9 1.5 8.6-.1 18-12.9 24.7-20.7 27.5z"/>
    </symbol>

    <symbol id="slack" fill="none" viewBox="0 0 111 29">
        <path fill="#000" d="m35.41 22.119 1.382-3.21c1.493 1.114 3.478 1.694 5.44 1.694 1.449 0 2.362-.558 2.362-1.405-.022-2.363-8.672-.512-8.739-6.442-.022-3.01 2.653-5.328 6.442-5.329 2.252 0 4.504.557 6.109 1.828l-1.293 3.277c-1.471-.936-3.3-1.605-5.038-1.605-1.182 0-1.962.558-1.962 1.271.023 2.319 8.739 1.047 8.828 6.71 0 3.076-2.607 5.239-6.353 5.24-2.742 0-5.26-.647-7.178-2.029Zm53.035-4.373a4.012 4.012 0 0 1-3.478 2.029 3.986 3.986 0 0 1-3.99-3.99 3.986 3.986 0 0 1 3.99-3.991c1.493 0 2.786.825 3.477 2.028l3.812-2.118c-1.427-2.541-4.169-4.28-7.29-4.28a8.363 8.363 0 0 0-8.36 8.361 8.363 8.363 0 0 0 8.361 8.36 8.31 8.31 0 0 0 7.29-4.282l-3.812-2.117ZM55.628.493h-4.77l.001 23.341h4.77V.494Zm38.5-.003.002 23.342h4.77v-7l5.663 6.999h6.108l-7.201-8.315 6.665-7.759h-5.841L98.9 14.202 98.899.49h-4.77Zm-24.32 17.302c-.691 1.137-2.118 1.984-3.723 1.984a3.986 3.986 0 0 1-3.99-3.99 3.987 3.987 0 0 1 3.99-3.99c1.605 0 3.031.89 3.722 2.05v3.946ZM69.807 7.76v1.895c-.78-1.315-2.72-2.23-4.748-2.23-4.191.001-7.49 3.702-7.49 8.339 0 4.637 3.3 8.382 7.49 8.382 2.03 0 3.969-.915 4.749-2.23v1.895h4.77V7.76h-4.771Z"/>
        <path fill="#E01E5A" d="M5.916 17.774a2.94 2.94 0 0 1-2.943 2.943 2.94 2.94 0 0 1-2.942-2.943 2.94 2.94 0 0 1 2.942-2.943h2.943v2.943Zm1.471 0a2.94 2.94 0 0 1 2.943-2.943 2.94 2.94 0 0 1 2.943 2.942v7.357a2.94 2.94 0 0 1-2.942 2.943 2.94 2.94 0 0 1-2.943-2.943v-7.356Z"/>
        <path fill="#36C5F0" d="M10.33 5.958a2.94 2.94 0 0 1-2.944-2.942A2.94 2.94 0 0 1 10.33.073a2.94 2.94 0 0 1 2.943 2.942v2.943H10.33Zm0 1.494a2.94 2.94 0 0 1 2.942 2.942 2.94 2.94 0 0 1-2.942 2.943H2.95a2.94 2.94 0 0 1-2.942-2.942A2.94 2.94 0 0 1 2.95 7.452h7.38Z"/>
        <path fill="#2EB67D" d="M22.122 10.394a2.94 2.94 0 0 1 2.943-2.943 2.94 2.94 0 0 1 2.943 2.942 2.94 2.94 0 0 1-2.943 2.943h-2.942v-2.942Zm-1.471 0a2.94 2.94 0 0 1-2.942 2.943 2.94 2.94 0 0 1-2.943-2.943V3.015A2.94 2.94 0 0 1 17.707.072a2.94 2.94 0 0 1 2.943 2.943v7.379Z"/>
        <path fill="#ECB22E" d="M17.71 22.187a2.94 2.94 0 0 1 2.942 2.942 2.94 2.94 0 0 1-2.942 2.943 2.94 2.94 0 0 1-2.943-2.942v-2.943h2.942Zm0-1.471a2.94 2.94 0 0 1-2.944-2.943 2.94 2.94 0 0 1 2.943-2.943h7.379a2.94 2.94 0 0 1 2.943 2.942 2.94 2.94 0 0 1-2.943 2.943H17.71Z"/>
    </symbol>
    
    <symbol id="github" viewBox="0 0 24 24">
        <path d="M12 1C5.923 1 1 5.923 1 12c0 4.867 3.149 8.979 7.521 10.436.55.096.756-.233.756-.522 0-.262-.013-1.128-.013-2.049-2.764.509-3.479-.674-3.699-1.292-.124-.317-.66-1.293-1.127-1.554-.385-.207-.936-.715-.014-.729.866-.014 1.485.797 1.691 1.128.99 1.663 2.571 1.196 3.204.907.096-.715.385-1.196.701-1.471-2.448-.275-5.005-1.224-5.005-5.432 0-1.196.426-2.186 1.128-2.956-.111-.275-.496-1.402.11-2.915 0 0 .921-.288 3.024 1.128a10.193 10.193 0 0 1 2.75-.371c.936 0 1.871.123 2.75.371 2.104-1.43 3.025-1.128 3.025-1.128.605 1.513.221 2.64.111 2.915.701.77 1.127 1.747 1.127 2.956 0 4.222-2.571 5.157-5.019 5.432.399.344.743 1.004.743 2.035 0 1.471-.014 2.654-.014 3.025 0 .289.206.632.756.522C19.851 20.979 23 16.854 23 12c0-6.077-4.922-11-11-11Z"></path>
    </symbol>

    <symbol id="notion" viewBox="0 0 26 27" fill="none">
        <path d="M4.48354 4.73371C5.32604 5.41546 5.64226 5.36371 7.22561 5.25796L22.15 4.36584C22.4662 4.36584 22.2031 4.05084 22.0981 3.99909L19.618 2.21372C19.1437 1.84697 18.5101 1.42622 17.2972 1.53084L2.8471 2.58159C2.32082 2.63334 2.21466 2.89659 2.42472 3.10584L4.48354 4.73371ZM5.37912 8.1987V23.8407C5.37912 24.681 5.80037 24.996 6.75015 24.9432L23.1518 23.9982C24.1016 23.9464 24.2077 23.3682 24.2077 22.6853V7.14796C24.2077 6.46621 23.9446 6.09833 23.363 6.15008L6.22274 7.14796C5.59031 7.20083 5.37912 7.51696 5.37912 8.1987ZM21.5707 9.03683C21.6757 9.50933 21.5707 9.98182 21.0963 10.0358L20.3058 10.1933V21.7403C19.6191 22.1082 18.9867 22.3186 18.4593 22.3186C17.6145 22.3186 17.4034 22.0553 16.7709 21.2689L11.6019 13.1847V21.0057L13.2372 21.3747C13.2372 21.3747 13.2372 22.3197 11.9181 22.3197L8.2793 22.5289C8.17427 22.3197 8.2793 21.7943 8.6486 21.6897L9.59726 21.4276V11.0854L8.28156 10.9797C8.1754 10.5072 8.43967 9.82545 9.17713 9.77258L13.0802 9.51045L18.4604 17.6993V10.4543L17.0883 10.2979C16.9832 9.7197 17.4045 9.30008 17.9319 9.24833L21.5707 9.03683ZM1.63418 1.16409L16.6659 0.0615958C18.5113 -0.0959039 18.9867 0.00872092 20.1466 0.849094L24.9452 4.20834C25.7357 4.78546 26 4.94296 26 5.57296V23.9982C26 25.1524 25.5788 25.8364 24.1027 25.9399L6.64512 26.9907C5.53836 27.0435 5.00982 26.886 4.42933 26.1503L0.895578 21.5828C0.26314 20.7424 0 20.1136 0 19.3778V3.00009C0 2.05622 0.422379 1.26759 1.63418 1.16409Z" fill="#EFEFF1"/>
    </symbol>

    <symbol id="discord" viewBox="0 0 59 44" fill="none">
        <path d="M37.1937 0C36.6265 1.0071 36.1172 2.04893 35.6541 3.11392C31.2553 2.45409 26.7754 2.45409 22.365 3.11392C21.9136 2.04893 21.3926 1.0071 20.8254 0C16.6928 0.70613 12.6644 1.94475 8.84436 3.69271C1.27372 14.9098 -0.775214 25.8374 0.243466 36.6146C4.67704 39.8906 9.6431 42.391 14.9333 43.9884C16.1256 42.391 17.179 40.6893 18.0819 38.9182C16.3687 38.2815 14.7133 37.4828 13.1274 36.5567C13.5442 36.2557 13.9493 35.9432 14.3429 35.6422C23.6384 40.0179 34.4039 40.0179 43.711 35.6422C44.1046 35.9663 44.5097 36.2789 44.9264 36.5567C43.3405 37.4943 41.6852 38.2815 39.9604 38.9298C40.8633 40.7009 41.9167 42.4025 43.109 44C48.3992 42.4025 53.3653 39.9137 57.7988 36.6377C59.0027 24.1358 55.7383 13.3007 49.1748 3.70429C45.3663 1.95633 41.3379 0.717706 37.2053 0.0231518L37.1937 0ZM19.3784 29.9816C16.5192 29.9816 14.1461 27.3886 14.1461 24.1821C14.1461 20.9755 16.4266 18.371 19.3669 18.371C22.3071 18.371 24.6455 20.9871 24.5992 24.1821C24.5529 27.377 22.2956 29.9816 19.3784 29.9816ZM38.6639 29.9816C35.7931 29.9816 33.4431 27.3886 33.4431 24.1821C33.4431 20.9755 35.7236 18.371 38.6639 18.371C41.6042 18.371 43.9309 20.9871 43.8846 24.1821C43.8383 27.377 41.581 29.9816 38.6639 29.9816Z" fill="white"/>
    </symbol>
</svg>